<mxfile host="www.draw.io" modified="2019-12-19T02:45:38.303Z" agent="Mozilla/5.0 (Windows NT 10.0; Win64; x64) AppleWebKit/537.36 (KHTML, like Gecko) Chrome/79.0.3945.88 Safari/537.36" etag="c2ZyX3w-cYb3j6f59VPA" version="12.4.3" type="github" pages="1">
  <diagram id="PuQRg4nqg7Lqu-Ay90W6" name="Page-1">
    <mxGraphModel dx="1422" dy="745" grid="1" gridSize="10" guides="1" tooltips="1" connect="1" arrows="1" fold="1" page="1" pageScale="1" pageWidth="827" pageHeight="1169" math="0" shadow="0">
      <root>
        <mxCell id="0"/>
        <mxCell id="1" parent="0"/>
        <mxCell id="RsGvACk1xtSzxTn4mvCu-1" value="" style="outlineConnect=0;dashed=0;verticalLabelPosition=bottom;verticalAlign=top;align=center;html=1;shape=mxgraph.aws3.s3;fillColor=#E05243;gradientColor=none;" vertex="1" parent="1">
          <mxGeometry x="140" y="330" width="76.5" height="93" as="geometry"/>
        </mxCell>
        <mxCell id="RsGvACk1xtSzxTn4mvCu-2" value="S3" style="text;html=1;align=center;verticalAlign=middle;resizable=0;points=[];;autosize=1;fontSize=18;" vertex="1" parent="1">
          <mxGeometry x="158.25" y="434" width="40" height="30" as="geometry"/>
        </mxCell>
        <mxCell id="RsGvACk1xtSzxTn4mvCu-4" value="" style="outlineConnect=0;dashed=0;verticalLabelPosition=bottom;verticalAlign=top;align=center;html=1;shape=mxgraph.aws3.lambda_function;fillColor=#F58534;gradientColor=none;" vertex="1" parent="1">
          <mxGeometry x="330" y="340.5" width="69" height="72" as="geometry"/>
        </mxCell>
        <mxCell id="RsGvACk1xtSzxTn4mvCu-5" value="Lambda" style="text;html=1;align=center;verticalAlign=middle;resizable=0;points=[];;autosize=1;fontSize=18;" vertex="1" parent="1">
          <mxGeometry x="324.5" y="434" width="80" height="30" as="geometry"/>
        </mxCell>
        <mxCell id="RsGvACk1xtSzxTn4mvCu-6" value="" style="outlineConnect=0;dashed=0;verticalLabelPosition=bottom;verticalAlign=top;align=center;html=1;shape=mxgraph.aws3.s3;fillColor=#E05243;gradientColor=none;" vertex="1" parent="1">
          <mxGeometry x="500" y="330" width="76.5" height="93" as="geometry"/>
        </mxCell>
        <mxCell id="RsGvACk1xtSzxTn4mvCu-7" value="S3" style="text;html=1;align=center;verticalAlign=middle;resizable=0;points=[];;autosize=1;fontSize=18;" vertex="1" parent="1">
          <mxGeometry x="518.25" y="434" width="40" height="30" as="geometry"/>
        </mxCell>
        <mxCell id="RsGvACk1xtSzxTn4mvCu-14" value="" style="outlineConnect=0;dashed=0;verticalLabelPosition=bottom;verticalAlign=top;align=center;html=1;shape=mxgraph.aws3.users;fillColor=#D2D3D3;gradientColor=none;fontSize=18;" vertex="1" parent="1">
          <mxGeometry x="153" y="130" width="66" height="63" as="geometry"/>
        </mxCell>
        <mxCell id="RsGvACk1xtSzxTn4mvCu-15" value="账单数据" style="text;html=1;align=center;verticalAlign=middle;resizable=0;points=[];;autosize=1;fontSize=18;" vertex="1" parent="1">
          <mxGeometry x="140" y="202" width="90" height="30" as="geometry"/>
        </mxCell>
        <mxCell id="RsGvACk1xtSzxTn4mvCu-19" value="" style="endArrow=classic;html=1;labelBackgroundColor=#FFB570;strokeColor=#FFB570;fillColor=#FFB570;fontSize=18;fontColor=#FFB570;strokeWidth=3;" edge="1" parent="1">
          <mxGeometry width="50" height="50" relative="1" as="geometry">
            <mxPoint x="180" y="240" as="sourcePoint"/>
            <mxPoint x="180" y="310" as="targetPoint"/>
          </mxGeometry>
        </mxCell>
        <mxCell id="RsGvACk1xtSzxTn4mvCu-20" value="" style="endArrow=classic;html=1;labelBackgroundColor=#FFB570;strokeColor=#FFB570;fillColor=#FFB570;fontSize=18;fontColor=#FFB570;strokeWidth=3;" edge="1" parent="1">
          <mxGeometry width="50" height="50" relative="1" as="geometry">
            <mxPoint x="230" y="376" as="sourcePoint"/>
            <mxPoint x="310" y="376" as="targetPoint"/>
          </mxGeometry>
        </mxCell>
        <mxCell id="RsGvACk1xtSzxTn4mvCu-21" value="" style="endArrow=classic;html=1;labelBackgroundColor=#FFB570;strokeColor=#FFB570;fillColor=#FFB570;fontSize=18;fontColor=#FFB570;strokeWidth=3;" edge="1" parent="1">
          <mxGeometry width="50" height="50" relative="1" as="geometry">
            <mxPoint x="410" y="376" as="sourcePoint"/>
            <mxPoint x="490" y="376" as="targetPoint"/>
          </mxGeometry>
        </mxCell>
        <mxCell id="RsGvACk1xtSzxTn4mvCu-22" value="" style="endArrow=classic;html=1;labelBackgroundColor=#FFB570;strokeColor=#FFB570;fillColor=#FFB570;fontSize=18;fontColor=#FFB570;strokeWidth=3;" edge="1" parent="1">
          <mxGeometry width="50" height="50" relative="1" as="geometry">
            <mxPoint x="537.75" y="470" as="sourcePoint"/>
            <mxPoint x="538" y="630" as="targetPoint"/>
          </mxGeometry>
        </mxCell>
        <mxCell id="RsGvACk1xtSzxTn4mvCu-23" value="" style="outlineConnect=0;fontColor=#232F3E;gradientColor=#4AB29A;gradientDirection=north;fillColor=#116D5B;strokeColor=#ffffff;dashed=0;verticalLabelPosition=bottom;verticalAlign=top;align=center;html=1;fontSize=12;fontStyle=0;aspect=fixed;shape=mxgraph.aws4.resourceIcon;resIcon=mxgraph.aws4.forecast;" vertex="1" parent="1">
          <mxGeometry x="600" y="470" width="66" height="66" as="geometry"/>
        </mxCell>
        <mxCell id="RsGvACk1xtSzxTn4mvCu-24" value="Forecast" style="text;html=1;align=center;verticalAlign=middle;resizable=0;points=[];;autosize=1;fontSize=18;fontColor=#000000;" vertex="1" parent="1">
          <mxGeometry x="588" y="546" width="90" height="30" as="geometry"/>
        </mxCell>
        <mxCell id="RsGvACk1xtSzxTn4mvCu-25" value="" style="rounded=1;arcSize=10;dashed=0;fillColor=none;gradientColor=none;strokeWidth=2;fontSize=18;fontColor=#000000;" vertex="1" parent="1">
          <mxGeometry x="70" y="100" width="660" height="490" as="geometry"/>
        </mxCell>
        <mxCell id="RsGvACk1xtSzxTn4mvCu-26" value="" style="dashed=0;html=1;shape=mxgraph.aws3.cloud;fillColor=#F58536;gradientColor=none;dashed=0;fontSize=18;fontColor=#000000;" vertex="1" parent="1">
          <mxGeometry x="90" y="80" width="52" height="36" as="geometry"/>
        </mxCell>
        <mxCell id="RsGvACk1xtSzxTn4mvCu-28" value="" style="shape=image;verticalLabelPosition=bottom;labelBackgroundColor=#ffffff;verticalAlign=top;aspect=fixed;imageAspect=0;image=data:image/png,iVBORw0KGgoAAAANSUhEUgAAAOIAAABFCAYAAABXCTqBAAAAAXNSR0IArs4c6QAAAARnQU1BAACxjwv8YQUAAAAJcEhZcwAADsMAAA7DAcdvqGQAAA+ISURBVHhe7ZyJV1RHFofnD5ksk5kxOZk4cbJMksninEmMmsS4JBOjcc24G7dEjfuGiiiCIossIouAiAiy2aII4oIKsgoom+zSQDc0DXRD09ypW/26oaEbegOeeL9z7uG8qlfVb6lf3apb9fgDEAQx5pAQCUIEkBAJQgSQEAlCBJAQCUIEkBAJQgSQEAlCBJAQCUIEkBAJQgSQEAlCBJAQCUIEkBAJQgSQEAlCBJAQCUIEkBAJQgSMmRAlWflwKu4aqLq7hRSCeHEhIRKECCAhEoQIcKAQe6G3UwYaaSH0djQLaX1oerRQ0yiDkroGbuFp98A1+goUVNby49J6KTQrlMLZxpTVN0KVVAaqLhItMT5xnBC1GlCXJoPi0nLoKpEIiX10qrsg8UEe+EvSuB2OjIedQRfBNymVHwddvw2ZJU+Fs43ZFxoPHrEpXIwEMR5xmBB7e7pAlRcOMu8PQJUTKqT2gR6xtllu8IihN+6AS1QiPKoa3iPOc/aHTacjobi6XkghiPHFqAlxINbMEUmIxHiHhEgQImDshPgwHzzjr5MQRUqttBU2HLnELelWEXR1a4QcYiSwTYi9WuiRV0J3dVafVd2H9vTjIPN6H9pTnY3zah5Cl6xKKKwDI6BKlRp6hWOkQ9UFZTVSKKqoMzIU4lrPcLiWWTgoT91FDWQkKCx7Bn/8Yg83t+BU6FRRxHoksUmIvWoltCfvAZnnu0bW7PkONJ+cCM2nJhnneb0Hyqs7hdLmeVLTAFv8omDRsUAjQyHOZ7bA5cygvEaZQij9YoIdUWWdDB4x4TQ0t0GPVivk2AcJcXSxTYjdKlAXJ0BH+jGDtd88Am2xK7gIFReXGucxUxfFCqXNI5UrIPZODpxLuWdkKMT/uQXDyZiUQXntnWqhtGNoaeuE9IdlcOV2EdzLM72cIiZQhJtdY+HfSz3AKyIdlB2OeR4kxNFlbOaIWg1o1e3Qq2qDXs3wDWc054g5j2vh2/V+8LdZh2HRznNCqngpqWqE+b+HcMHs97kCbe0qIcc+SIijy5gIsUdWA+0SD2gN2wLqx7eEVPOMphCzCqvhP8s8eQP8/tdAIVW8kBDHB2MiRE1tIcg85oF060TouB0upJqHhGgeEuL44LkVIgYp5K3tDmt4ekiIOkiIo4tNQsTtaLEZ2SBt6YtYjrYQ85lg1m45A/6hKUKKYxhtIfb2ArQp1VD9TA510lbo1vQIOZZBQuyjqaWdP8f6JgV0qp+vjsMmIWaXVfJdMZXSJiEF6QVtexN01+eAVvlMSDONtUJ8XNMA5fVN0NHZJaQA5BZUwspNfuAbfF1IcQwjIUSttpdHY8OTsuA7Vuefpu3n9U+Y4cREFAw/bg3ix3//7gjkPakTSllGfyF+vdYXFm4P5YEmPMbfwbTQhCxolCv5dViKPULEzqWZjVbOS7Lhu01nYMI3Tryet+Y4wwaXS/webd0gIFd0QMSVh/zd/PVrXb1vzjoEaw5egJnr/fnxZ0s84Mb9EqHE0LiFpMKcjWdgFitbXN4gpPZxMTkX5m4OgtkbAyAxvZCnaVhnmfagFI6cuQZe59OhwwGdlAOFaJreHnaRA6y7Ko8J8UcuxPZbzHuaOAc3DQyFPULEDeitTBj4Ugda6oMSmLzkJH+hM9cHmDwHzVLPg42yorYZNhyJhj9/dYDXi/ba9APwytR9hmM0e4Wot1eZAFGEL00RjtnvrHO+yK8Dr8cS7BFidUMLrD0UBa98uZeXf3nKXuF6dMf/+K8LBMfdt9prYWeC9eqvC+8P7+1l4Xf0Zo0QN7hE8+eF5TIfGW86QTzCbnLBv/LlPgi6fJ+nVTGvi53MTo94cPKVQG5xLU+3B4uF2NrRCQ1yBbfUvGI4fknCBalPU5pZz1MXXIPOexeMTCnxgOYj07gQFRHbBuV3ZsaAViEVatCBvbmcDT0qKqXcrqbmwbINp8HVK96QVs0aWn+vaY6ntTI4djYFdnsmDrKVB87DxDlH+It5d+4xk+eg+UbdEWobGgUTLP6W3gtOYo0QPeC2E3G8EczaEMB6dJ0Hs1eIWP6HzWfh12Mx8Lv7ZeYdQ+D9H115g0VR7GND13YLng9iqxC7NVrWQBN4ORTgP+cdh8U7z8FWt8vw855wfv+Y9+nik3At4zHrGCzrGbDz3HI8lpfF+8F6ftoWDL+xe13POhn0hnoPOdJCxA4BPeVh/2TuUZ/W2f95nsVCvJ5TCL5JadyOXkyCHUEXwT0mmR8HSNIho7hMONMYuecCLjhrrHHvJ9BdprtpPWrWe16/WQC7D0dy27w7BBauOgWrfvM3pLmfToTHpcM35NvZ5byB4sO31fDFW0IRG+58uvgEL4ONB18s7oBBtKwRYoNftjeC59srxJUHIlkno/soGxt4M+u4/C/ehQ9/cuP5ODQsrhg8/DKFrULMYd4BPT96v8/YyAIbr6y1g1+PqksDgZfu8U4JRwPb3OMsHlnkl9SxMjrPh88Rh4RS9hxRx9hJP2EdsS1DU1uEiL+Jzx1HT3dyKngnYS8WC7Gouo57QrSw1AxwioiDmLsP+fHtR6VQ8cz0MFUZdxRaz6wyMrnXAmjc8xEXXbPrzEH5inO/gaauWKhBBwYxHhXXQNTlDG5eARJYstYLtjuFG9KuXM+Buga5UMI82MjWO0fDAjafGmgzfvGD12cc5C/mrdnOJs9B2+udJNRmHnxBF6/lcs+A9aGnksp0ItSjUKp4z4r59grRVLAGRbDtRDxvSHhOsNCYhsNWIe73kfAyr03fz0cX2OnlPq41WEbuUzY0PcrPwXleYfnQ8QQ9bsE3eBkUzZqDUdCq7BRy+ljH3imeM9JCHAlGfI7YI68FjbTcyFT5ySBzm8OFqJScGpTf0/iUKW9wT4kNG5ct0LJyK2DFRl/wDrxqSOtiZklAAucmOJzARjzQYlPy4ZNFOg+GgQ5T56BVP2sRajMPBiRcg1J4XdgwQ+MzB+0FHWkhoicKiX9gCOCgKC3BViF+vcaXl8G5Gw5Lp6/2MbKpq7wNQ8jPl3kyoVYIJYfml8O6ueEbrJMMiM4QUo0hIVqJtVFTUzwPUVMVE/xuT9186Y1vD8Gl63lCTh8jLUQEOxf9UHyVU6SQOjS2CvHjRe6GcsPZRwvc4epd45GPOeZuOcvL4Hz6giRbSDWGhMjQqrtAei4aHn3D5oRh0UKqaawVIvakOI/CxqHneRBif4/4p2n7ICwhi88v+jMaQgxLzIKJbH6I5+w8mSCkDo2tQpyywpuX+fCn47zjwWUMc4ZLOpaum64+eIHXix3amUvkETkYIa1tbjH6qFfbqYKaY95w/9X3odbdT0g1jbVCxIeEw8V7+ZVCCkBDUyskJWdDdr5lQxtLcaQQe9gwOYZ5I33YfodHPG+A/RlpIWL9O4QoJhqK0hJsFSJ+CYJlJrAh5DHWCQ01VbA0Yoq4h6bxenHIu2J/JJ+GDMReIT4wIcQT59LEK0RTjLYQRwpHL+iXVjXxhoH14bJIKJuvPWtS8M+V8ENo3AmCyyGYb68Qt7jFQlW9jNeNhtHZkLgH8M4Px3j+W7MPQ3nN4H91aQpbhYjBGZwPY7kvlntB0q1C7vnwXnFujteF0Vy8DvyEy1KKyp/BhG90QbS3v3cBn8hbhueISzK4Lrx833meb40Qd51KNKzvovfD6YQe7NR+3h3ORLiXdwCXU/OFHMczJkLsrnsMLYFroPnQ56DKjBFSzYMP6XkVIjYU7/O3DGuFf2EvHT+vOh58Azwj0mErE8/kpTqh2itEDOuvPhjJ6z56NgUW7ww17GrBIZ3LmWtMEJYJylYhopdbcyjKsG6Kc1Nc/8N79Ym8zYfqaw9dgClMpO4hqUIpy9jDOix8fljv6+x+cFeSS+B1fr+4donrvphnjRBxLfMDYXlnEhN4YEwG/w71bu5TcPK9yiPnmIfrno1y49GMIxkTIfa2t0BXcRqosmJA01AqpJoHH8TzKkSkrrEVnJkI/rXQnfeuWLcp+2iBGzwqs+4LE/Qsi3ed44vcpurEpZMP5h+HAz4SqG+0/L8Z2CpEBCPK649Ew9usY+l/Lf0Nl4i8WAdlDbg5YtepBB6NfclEnXrDaCwKyRLUbB6PnlAfKcf3g+J7c+Zhgyecvvo0/1B8JLFJiFqNBpT5RSCXpBqsOe4qlK7ZxoVYuna7UR5aW8Hw0THcOnYzsxSS0guNDB8QDq9Onrs5KM8R+/z6gwvH87YG80Xw1U4XhFT7wfW8hJuFrFdPYh4xFGas84Opq3xg5gZ/vvNk+8l4PozE86wB54BxaQWwxyuJ71zBnTpY77frdPXisDcutYBviLZmTmaPEPF3cNiI29hwax9e02TmpTBKOnWlDyzYHgLOAdcgp7hGKGE5OMzFIBDe75JdYXzdF+8X94su3R3GNwmEs3mwftOEJeC9SZjQ9rI6MSg4d0sQzGPeFiPMrkE34P4oOACbhKhp74CqQycgd/LsPvtsFjyc9DkXIv41ymNWefCEUNo8OCzDDbYfLzxhZNgYcEL9HhvmDMzDLxYcCTZsnLTfzCrjX+s7EtQBNqSy6ibIZo0w81E1v2c8xk7I1v83gwERvG7cS4r1PSio4jtcSlm9rSzdGgHqsUeIenDdFwWZ96SWzx3xmeI9l1RKoY0N2W0Fbwe9I44G8D7xfgtK6tlxk7CLRzjRSvCaKuvk/N4fP5Vyz47r06OBbR5RpYbGiBgo37zfYGUbd0PBtHlciAVf/WSUV7HlAEjDLgmlzYMP9pBfMmw6GmNk2BhwjoNfFgzMa7bSgxCW4QghEpZj2xyRdTk9HZ2gaVUYrLuhEaoOunMhVjt7GOWh4fn9CY5Ig407gqCjX8+IPShGqjAC1t+wMeD8KuXek0F5luykIawHo5wZeZXcahpaHfbf4QjTjEmwBvHwTYL5y0+Ckg2dhgOFOFrBGoIYC0iIBCECRk2IOLSRsol7g7SV21GPy1yI5Wzirk9rGbDrRA8JkRjvOEyIPUyIdacC4eG7X8Iz3xAhtY8WRQf/iNfJNZrbql/9uBD3uUQZ0i7Emt5DiAutGKZ+WFQtpBDE+MJhQuzV9IAyO59HR9vzBy9+Kto6ISA0BU75X+G27vdALkR37wRDWmKy6V31+PnQ5RsF/ENQghiPOEyIw4HRTRx6yuRKbq6ecVyI+O8t9GnKARuWCeJFYdSEOBBrgjUEMd4hIRKECBgzIUpu5IFngMTosxOCeFEZMyESBNEHCZEgRAAJkSBEAAmRIEQACZEgRAAJkSBEAAmRIEQACZEgRAAJkSBEAAmRIEQACZEgRAAJkSDGHID/A+K2ctR4sXmhAAAAAElFTkSuQmCC;" vertex="1" parent="1">
          <mxGeometry x="430" y="640" width="226" height="69" as="geometry"/>
        </mxCell>
      </root>
    </mxGraphModel>
  </diagram>
</mxfile>
